<?xml version="1.0" encoding="UTF-8" standalone="no"?><svg xmlns="http://www.w3.org/2000/svg" xmlns:xlink="http://www.w3.org/1999/xlink" contentScriptType="application/ecmascript" contentStyleType="text/css" height="162px" preserveAspectRatio="none" style="width:654px;height:162px;" version="1.1" viewBox="0 0 654 162" width="654px" zoomAndPan="magnify"><defs/><g><text fill="#000000" font-family="Serif" font-size="10" lengthAdjust="spacingAndGlyphs" textLength="6" x="5" y="9.2822">1</text><line style="stroke: #C0C0C0; stroke-width: 1.0;" x1="0" x2="0" y1="0" y2="160"/><text fill="#000000" font-family="Serif" font-size="10" lengthAdjust="spacingAndGlyphs" textLength="6" x="21" y="9.2822">2</text><line style="stroke: #C0C0C0; stroke-width: 1.0;" x1="16" x2="16" y1="0" y2="160"/><text fill="#000000" font-family="Serif" font-size="10" lengthAdjust="spacingAndGlyphs" textLength="6" x="37" y="9.2822">3</text><line style="stroke: #C0C0C0; stroke-width: 1.0;" x1="32" x2="32" y1="0" y2="160"/><text fill="#000000" font-family="Serif" font-size="10" lengthAdjust="spacingAndGlyphs" textLength="6" x="53" y="9.2822">4</text><line style="stroke: #C0C0C0; stroke-width: 1.0;" x1="48" x2="48" y1="0" y2="160"/><text fill="#000000" font-family="Serif" font-size="10" lengthAdjust="spacingAndGlyphs" textLength="6" x="69" y="9.2822">5</text><line style="stroke: #C0C0C0; stroke-width: 1.0;" x1="64" x2="64" y1="0" y2="160"/><text fill="#000000" font-family="Serif" font-size="10" lengthAdjust="spacingAndGlyphs" textLength="6" x="85" y="9.2822">6</text><line style="stroke: #C0C0C0; stroke-width: 1.0;" x1="80" x2="80" y1="0" y2="160"/><text fill="#000000" font-family="Serif" font-size="10" lengthAdjust="spacingAndGlyphs" textLength="6" x="101" y="9.2822">7</text><line style="stroke: #C0C0C0; stroke-width: 1.0;" x1="96" x2="96" y1="0" y2="160"/><text fill="#000000" font-family="Serif" font-size="10" lengthAdjust="spacingAndGlyphs" textLength="6" x="117" y="9.2822">8</text><line style="stroke: #C0C0C0; stroke-width: 1.0;" x1="112" x2="112" y1="0" y2="160"/><text fill="#000000" font-family="Serif" font-size="10" lengthAdjust="spacingAndGlyphs" textLength="6" x="133" y="9.2822">9</text><line style="stroke: #C0C0C0; stroke-width: 1.0;" x1="128" x2="128" y1="0" y2="160"/><text fill="#000000" font-family="Serif" font-size="10" lengthAdjust="spacingAndGlyphs" textLength="12" x="146" y="9.2822">10</text><line style="stroke: #C0C0C0; stroke-width: 1.0;" x1="144" x2="144" y1="0" y2="160"/><text fill="#000000" font-family="Serif" font-size="10" lengthAdjust="spacingAndGlyphs" textLength="12" x="162" y="9.2822">11</text><line style="stroke: #C0C0C0; stroke-width: 1.0;" x1="160" x2="160" y1="0" y2="160"/><text fill="#000000" font-family="Serif" font-size="10" lengthAdjust="spacingAndGlyphs" textLength="12" x="178" y="9.2822">12</text><line style="stroke: #C0C0C0; stroke-width: 1.0;" x1="176" x2="176" y1="0" y2="160"/><text fill="#000000" font-family="Serif" font-size="10" lengthAdjust="spacingAndGlyphs" textLength="12" x="194" y="9.2822">13</text><line style="stroke: #C0C0C0; stroke-width: 1.0;" x1="192" x2="192" y1="0" y2="160"/><text fill="#000000" font-family="Serif" font-size="10" lengthAdjust="spacingAndGlyphs" textLength="12" x="210" y="9.2822">14</text><line style="stroke: #C0C0C0; stroke-width: 1.0;" x1="208" x2="208" y1="0" y2="160"/><text fill="#000000" font-family="Serif" font-size="10" lengthAdjust="spacingAndGlyphs" textLength="12" x="226" y="9.2822">15</text><line style="stroke: #C0C0C0; stroke-width: 1.0;" x1="224" x2="224" y1="0" y2="160"/><text fill="#000000" font-family="Serif" font-size="10" lengthAdjust="spacingAndGlyphs" textLength="12" x="242" y="9.2822">16</text><line style="stroke: #C0C0C0; stroke-width: 1.0;" x1="240" x2="240" y1="0" y2="160"/><text fill="#000000" font-family="Serif" font-size="10" lengthAdjust="spacingAndGlyphs" textLength="12" x="258" y="9.2822">17</text><line style="stroke: #C0C0C0; stroke-width: 1.0;" x1="256" x2="256" y1="0" y2="160"/><text fill="#000000" font-family="Serif" font-size="10" lengthAdjust="spacingAndGlyphs" textLength="12" x="274" y="9.2822">18</text><line style="stroke: #C0C0C0; stroke-width: 1.0;" x1="272" x2="272" y1="0" y2="160"/><text fill="#000000" font-family="Serif" font-size="10" lengthAdjust="spacingAndGlyphs" textLength="12" x="290" y="9.2822">19</text><line style="stroke: #C0C0C0; stroke-width: 1.0;" x1="288" x2="288" y1="0" y2="160"/><text fill="#000000" font-family="Serif" font-size="10" lengthAdjust="spacingAndGlyphs" textLength="12" x="306" y="9.2822">20</text><line style="stroke: #C0C0C0; stroke-width: 1.0;" x1="304" x2="304" y1="0" y2="160"/><text fill="#000000" font-family="Serif" font-size="10" lengthAdjust="spacingAndGlyphs" textLength="12" x="322" y="9.2822">21</text><line style="stroke: #C0C0C0; stroke-width: 1.0;" x1="320" x2="320" y1="0" y2="160"/><text fill="#000000" font-family="Serif" font-size="10" lengthAdjust="spacingAndGlyphs" textLength="12" x="338" y="9.2822">22</text><line style="stroke: #C0C0C0; stroke-width: 1.0;" x1="336" x2="336" y1="0" y2="160"/><text fill="#000000" font-family="Serif" font-size="10" lengthAdjust="spacingAndGlyphs" textLength="12" x="354" y="9.2822">23</text><line style="stroke: #C0C0C0; stroke-width: 1.0;" x1="352" x2="352" y1="0" y2="160"/><text fill="#000000" font-family="Serif" font-size="10" lengthAdjust="spacingAndGlyphs" textLength="12" x="370" y="9.2822">24</text><line style="stroke: #C0C0C0; stroke-width: 1.0;" x1="368" x2="368" y1="0" y2="160"/><text fill="#000000" font-family="Serif" font-size="10" lengthAdjust="spacingAndGlyphs" textLength="12" x="386" y="9.2822">25</text><line style="stroke: #C0C0C0; stroke-width: 1.0;" x1="384" x2="384" y1="0" y2="160"/><text fill="#000000" font-family="Serif" font-size="10" lengthAdjust="spacingAndGlyphs" textLength="12" x="402" y="9.2822">26</text><line style="stroke: #C0C0C0; stroke-width: 1.0;" x1="400" x2="400" y1="0" y2="160"/><text fill="#000000" font-family="Serif" font-size="10" lengthAdjust="spacingAndGlyphs" textLength="12" x="418" y="9.2822">27</text><line style="stroke: #C0C0C0; stroke-width: 1.0;" x1="416" x2="416" y1="0" y2="160"/><text fill="#000000" font-family="Serif" font-size="10" lengthAdjust="spacingAndGlyphs" textLength="12" x="434" y="9.2822">28</text><line style="stroke: #C0C0C0; stroke-width: 1.0;" x1="432" x2="432" y1="0" y2="160"/><text fill="#000000" font-family="Serif" font-size="10" lengthAdjust="spacingAndGlyphs" textLength="12" x="450" y="9.2822">29</text><line style="stroke: #C0C0C0; stroke-width: 1.0;" x1="448" x2="448" y1="0" y2="160"/><text fill="#000000" font-family="Serif" font-size="10" lengthAdjust="spacingAndGlyphs" textLength="12" x="466" y="9.2822">30</text><line style="stroke: #C0C0C0; stroke-width: 1.0;" x1="464" x2="464" y1="0" y2="160"/><text fill="#000000" font-family="Serif" font-size="10" lengthAdjust="spacingAndGlyphs" textLength="12" x="482" y="9.2822">31</text><line style="stroke: #C0C0C0; stroke-width: 1.0;" x1="480" x2="480" y1="0" y2="160"/><text fill="#000000" font-family="Serif" font-size="10" lengthAdjust="spacingAndGlyphs" textLength="12" x="498" y="9.2822">32</text><line style="stroke: #C0C0C0; stroke-width: 1.0;" x1="496" x2="496" y1="0" y2="160"/><text fill="#000000" font-family="Serif" font-size="10" lengthAdjust="spacingAndGlyphs" textLength="12" x="514" y="9.2822">33</text><line style="stroke: #C0C0C0; stroke-width: 1.0;" x1="512" x2="512" y1="0" y2="160"/><text fill="#000000" font-family="Serif" font-size="10" lengthAdjust="spacingAndGlyphs" textLength="12" x="530" y="9.2822">34</text><line style="stroke: #C0C0C0; stroke-width: 1.0;" x1="528" x2="528" y1="0" y2="160"/><text fill="#000000" font-family="Serif" font-size="10" lengthAdjust="spacingAndGlyphs" textLength="12" x="546" y="9.2822">35</text><line style="stroke: #C0C0C0; stroke-width: 1.0;" x1="544" x2="544" y1="0" y2="160"/><text fill="#000000" font-family="Serif" font-size="10" lengthAdjust="spacingAndGlyphs" textLength="12" x="562" y="9.2822">36</text><line style="stroke: #C0C0C0; stroke-width: 1.0;" x1="560" x2="560" y1="0" y2="160"/><text fill="#000000" font-family="Serif" font-size="10" lengthAdjust="spacingAndGlyphs" textLength="12" x="578" y="9.2822">37</text><line style="stroke: #C0C0C0; stroke-width: 1.0;" x1="576" x2="576" y1="0" y2="160"/><line style="stroke: #C0C0C0; stroke-width: 1.0;" x1="592" x2="592" y1="0" y2="160"/><line style="stroke: #C0C0C0; stroke-width: 1.0;" x1="0" x2="592" y1="0" y2="0"/><line style="stroke: #C0C0C0; stroke-width: 1.0;" x1="0" x2="592" y1="13" y2="13"/><line style="stroke: #CD0A0A; stroke-width: 1.5;" x1="72" x2="72" y1="32" y2="40"/><line style="stroke: #CD0A0A; stroke-width: 1.5;" x1="72" x2="80" y1="40" y2="40"/><polygon fill="#CD0A0A" points="76,36,76,40,76,44,80,40" style="stroke: #CD0A0A; stroke-width: 1.5;"/><line style="stroke: #CD0A0A; stroke-width: 1.5;" x1="184" x2="184" y1="48" y2="56"/><line style="stroke: #CD0A0A; stroke-width: 1.5;" x1="184" x2="192" y1="56" y2="56"/><polygon fill="#CD0A0A" points="188,52,188,56,188,60,192,56" style="stroke: #CD0A0A; stroke-width: 1.5;"/><line style="stroke: #CD0A0A; stroke-width: 1.5;" x1="232" x2="232" y1="64" y2="72"/><line style="stroke: #CD0A0A; stroke-width: 1.5;" x1="232" x2="240" y1="72" y2="72"/><polygon fill="#CD0A0A" points="236,68,236,72,236,76,240,72" style="stroke: #CD0A0A; stroke-width: 1.5;"/><line style="stroke: #CD0A0A; stroke-width: 1.5;" x1="344" x2="344" y1="96" y2="104"/><line style="stroke: #CD0A0A; stroke-width: 1.5;" x1="344" x2="352" y1="104" y2="104"/><polygon fill="#CD0A0A" points="348,100,348,104,348,108,352,104" style="stroke: #CD0A0A; stroke-width: 1.5;"/><line style="stroke: #CD0A0A; stroke-width: 1.5;" x1="360" x2="360" y1="112" y2="120"/><line style="stroke: #CD0A0A; stroke-width: 1.5;" x1="360" x2="368" y1="120" y2="120"/><polygon fill="#CD0A0A" points="364,116,364,120,364,124,368,120" style="stroke: #CD0A0A; stroke-width: 1.5;"/><line style="stroke: #CD0A0A; stroke-width: 1.5;" x1="392" x2="392" y1="128" y2="136"/><line style="stroke: #CD0A0A; stroke-width: 1.5;" x1="392" x2="400" y1="136" y2="136"/><polygon fill="#CD0A0A" points="396,132,396,136,396,140,400,136" style="stroke: #CD0A0A; stroke-width: 1.5;"/><rect fill="#FFCC00" height="12" rx="4" ry="4" style="stroke: #FFCC00; stroke-width: 1.0;" width="76" x="2" y="18"/><rect fill="#FFCC00" height="12" rx="4" ry="4" style="stroke: #FFCC00; stroke-width: 1.0;" width="108" x="82" y="34"/><rect fill="#FFCC00" height="12" rx="4" ry="4" style="stroke: #FFCC00; stroke-width: 1.0;" width="44" x="194" y="50"/><rect fill="#FFCC00" height="12" rx="4" ry="4" style="stroke: #FFCC00; stroke-width: 1.0;" width="108" x="242" y="66"/><polygon fill="#FF3333" points="344,82,350,88,344,94,338,88" style="stroke: #FF3333; stroke-width: 1.0;"/><rect fill="#FFCC00" height="12" rx="4" ry="4" style="stroke: #FFCC00; stroke-width: 1.0;" width="12" x="354" y="98"/><rect fill="#FFCC00" height="12" rx="4" ry="4" style="stroke: #FFCC00; stroke-width: 1.0;" width="28" x="370" y="114"/><rect fill="#FFFFFF" height="12" rx="4" ry="4" style="stroke: #FFFFFF; stroke-width: 1.0;" width="188" x="402" y="130"/><rect fill="#FFCC00" height="12" rx="4" ry="4" style="stroke: none; stroke-width: 1.0;" width="150.4" x="402" y="130"/><rect fill="#FFCC00" height="12" style="stroke: none; stroke-width: 1.0;" width="8" x="544.4" y="130"/><rect fill="none" height="12" rx="4" ry="4" style="stroke: #FFCC00; stroke-width: 1.0;" width="188" x="402" y="130"/><polygon fill="#FF3333" points="584,146,590,152,584,158,578,152" style="stroke: #FF3333; stroke-width: 1.0;"/><text fill="#000000" font-family="Serif" font-size="11" lengthAdjust="spacingAndGlyphs" textLength="108" x="16" y="26.8081">Find &amp; Report bug</text><text fill="#000000" font-family="Serif" font-size="11" lengthAdjust="spacingAndGlyphs" textLength="69" x="96" y="42.8081">Analyse bug</text><text fill="#000000" font-family="Serif" font-size="11" lengthAdjust="spacingAndGlyphs" textLength="125" x="208" y="58.8081">Create solution ticket</text><text fill="#000000" font-family="Serif" font-size="11" lengthAdjust="spacingAndGlyphs" textLength="136" x="256" y="74.8081">Work on solution ticket</text><text fill="#000000" font-family="Serif" font-size="11" lengthAdjust="spacingAndGlyphs" textLength="123" x="352" y="90.8081">Solution ticket closed</text><text fill="#000000" font-family="Serif" font-size="11" lengthAdjust="spacingAndGlyphs" textLength="160" x="368" y="106.8081">Add solution to release plan</text><text fill="#000000" font-family="Serif" font-size="11" lengthAdjust="spacingAndGlyphs" textLength="82" x="384" y="122.8081">Deploy release</text><text fill="#000000" font-family="Serif" font-size="11" lengthAdjust="spacingAndGlyphs" textLength="68" x="416" y="138.8081">Test release</text><text fill="#000000" font-family="Serif" font-size="11" lengthAdjust="spacingAndGlyphs" textLength="60" x="592" y="154.8081">Bug solved</text><!--MD5=[d41d8cd98f00b204e9800998ecf8427e]
--></g></svg>