<?xml version="1.0" encoding="UTF-8" standalone="no"?>
<!-- Created with Inkscape (http://www.inkscape.org/) -->

<svg
   xmlns:dc="http://purl.org/dc/elements/1.1/"
   xmlns:cc="http://creativecommons.org/ns#"
   xmlns:rdf="http://www.w3.org/1999/02/22-rdf-syntax-ns#"
   xmlns:svg="http://www.w3.org/2000/svg"
   xmlns="http://www.w3.org/2000/svg"
   xmlns:sodipodi="http://sodipodi.sourceforge.net/DTD/sodipodi-0.dtd"
   xmlns:inkscape="http://www.inkscape.org/namespaces/inkscape"
   width="98.529495mm"
   height="96.470711mm"
   viewBox="0 0 349.12026 341.82535"
   id="svg2"
   version="1.1"
   inkscape:version="0.91 r13725"
   sodipodi:docname="books.svg">
  <defs
     id="defs4">
    <clipPath
       id="clipPath58"
       clipPathUnits="userSpaceOnUse">
      <path
         inkscape:connector-curvature="0"
         id="path60"
         d="M 248.324,1461.59 C 126.266,1426.93 127.109,1220.15 127.109,1220.15 128.004,1110.01 139.297,920.891 208.629,851.066 277.488,781.75 343.082,748.82 400.598,733.75 c 0,0 71.066,-21.051 138.136,4.621 56.399,18.891 119.641,56.09 183.711,129.902 70.293,80.997 62.305,300.467 54.805,400.977 -2.207,29.79 -19.727,63.35 -27.156,71.62 -108.156,120.31 -110.422,196.84 -110.422,196.84 l -14.07,-18.1 c -25.891,-27.68 -74.395,-55.98 -164.289,-72.31 0,0 28.632,110.96 53.828,131.22 0,0 -108.278,-147.61 -291.328,-187.67 0,0 4.953,25.09 18.875,58.15 l 5.636,12.59 z" />
    </clipPath>
    <linearGradient
       id="linearGradient62"
       spreadMethod="pad"
       gradientTransform="matrix(-1.44e-5,329.108,329.108,1.44e-5,454.57,998.091)"
       gradientUnits="userSpaceOnUse"
       y2="0"
       x2="1"
       y1="0"
       x1="0">
      <stop
         id="stop64"
         offset="0"
         style="stop-opacity:1;stop-color:#fcd0b4" />
      <stop
         id="stop66"
         offset="1"
         style="stop-opacity:1;stop-color:#f7918c" />
    </linearGradient>
    <clipPath
       id="clipPath58-6"
       clipPathUnits="userSpaceOnUse">
      <path
         inkscape:connector-curvature="0"
         id="path60-2"
         d="M 248.324,1461.59 C 126.266,1426.93 127.109,1220.15 127.109,1220.15 128.004,1110.01 139.297,920.891 208.629,851.066 277.488,781.75 343.082,748.82 400.598,733.75 c 0,0 71.066,-21.051 138.136,4.621 56.399,18.891 119.641,56.09 183.711,129.902 70.293,80.997 62.305,300.467 54.805,400.977 -2.207,29.79 -19.727,63.35 -27.156,71.62 -108.156,120.31 -110.422,196.84 -110.422,196.84 l -14.07,-18.1 c -25.891,-27.68 -74.395,-55.98 -164.289,-72.31 0,0 28.632,110.96 53.828,131.22 0,0 -108.278,-147.61 -291.328,-187.67 0,0 4.953,25.09 18.875,58.15 l 5.636,12.59 z" />
    </clipPath>
  </defs>
  <sodipodi:namedview
     id="base"
     pagecolor="#ffffff"
     bordercolor="#666666"
     borderopacity="1.0"
     inkscape:pageopacity="0.0"
     inkscape:pageshadow="2"
     inkscape:zoom="0.98994949"
     inkscape:cx="177.43313"
     inkscape:cy="15.915547"
     inkscape:document-units="px"
     inkscape:current-layer="layer1"
     showgrid="false"
     inkscape:window-width="1920"
     inkscape:window-height="1171"
     inkscape:window-x="0"
     inkscape:window-y="240"
     inkscape:window-maximized="1"
     fit-margin-top="0"
     fit-margin-left="0"
     fit-margin-right="0"
     fit-margin-bottom="0" />
  <metadata
     id="metadata7">
    <rdf:RDF>
      <cc:Work
         rdf:about="">
        <dc:format>image/svg+xml</dc:format>
        <dc:type
           rdf:resource="http://purl.org/dc/dcmitype/StillImage" />
        <dc:title></dc:title>
      </cc:Work>
    </rdf:RDF>
  </metadata>
  <g
     inkscape:label="Ebene 1"
     inkscape:groupmode="layer"
     id="layer1"
     transform="translate(-175.4399,-415.99544)">
    <path
       id="imagebot_32"
       d="m 185.63323,612.63284 c -9.47907,15.20398 -6.73451,25.82407 -3.37587,36.21391 l 153.75559,105.5727 142.70728,-60.1519 -11.0483,-7.36554 -2.4552,-12.27588 c 3.92825,-3.79325 7.63001,-7.54119 10.12763,-11.0483 0.68666,-4.17953 3.84534,-9.59511 -1.53448,-10.74141 l -162.96254,-79.79332 -111.40375,35.2932 -5.21725,4.91035 -8.59311,-0.61381 z"
       stroke-miterlimit="4"
       label="Ebene 2"
       inkscape:connector-curvature="0"
       style="fill:#d4aa00;fill-rule:evenodd;stroke:#ff6600;stroke-width:1.00883245;stroke-miterlimit:4" />
    <path
       id="imagebot_29"
       d="m 311.69076,568.62074 -116.16774,35.75228 c 0,0 -1.46605,3.74072 -3.1331,4.46904 -2.43196,1.06248 -7.88691,-1.07828 -7.88691,-1.07828 -4.84427,2.24263 -8.4127,11.99822 -8.96519,20.99566 -0.55249,8.99741 1.28289,17.8617 4.24526,21.17875 L 333.4188,756.93051 c 2.30002,1.30025 3.46798,0.90244 4.63858,0.5086 l 143.97885,-59.41984 c 2.84928,-1.28785 2.99268,-4.34087 0.57642,-7.62921 l -14.11915,-9.79933 c 1.13804,5.12742 1.97826,9.96627 1.38341,12.78319 -28.12016,11.26632 -93.54465,37.77343 -130.78875,53.66909 -2.89737,-4.03578 -3.22167,-10.22575 -3.79086,-15.6857 -0.63359,-6.07768 -0.0316,-14.22209 2.35999,-17.82865 2.39165,-3.60655 5.28707,-0.0406 7.17484,-0.9223 1.52251,-0.71106 3.86593,-2.33193 5.13364,-4.22488 28.93025,-9.6842 92.67968,-35.43236 131.55506,-50.56315 2.79424,-2.87035 1.26265,-4.65924 -0.48148,-6.395 L 311.69076,568.62074 Z m -0.56964,7.22915 158.36247,79.02524 -123.76984,47.26732 c 0,0 -1.69538,2.8347 -3.21445,3.37722 -1.31514,0.46968 -3.32795,-1.35379 -4.76743,-1.85135 -1.77121,-0.61228 -4.72191,0.50839 -5.9881,2.48203 -3.01424,4.69844 -4.83691,10.44453 -5.79821,15.92306 -1.15688,6.59309 -0.23638,12.99906 1.5123,18.81199 l -138.3095,-95.16535 c -3.15715,-2.14676 -6.25913,-8.53895 -5.84567,-15.27203 0.41919,-6.82666 2.09218,-13.86335 6.57132,-16.02476 0,0 5.05579,1.78833 6.62555,1.31563 1.76694,-0.53214 3.90616,-4.31984 3.90616,-4.31984 z m -111.45951,43.6535 c -2.68303,1.12342 42.22541,27.37921 65.81296,41.48869 22.71361,13.58669 71.35548,42.25299 72.78625,39.98394 1.4308,-2.26902 -47.44457,-29.27278 -70.06683,-42.85252 -22.89725,-13.74484 -65.84935,-39.74356 -68.53238,-38.62011 z"
       stroke-miterlimit="4"
       label="Ebene 2"
       inkscape:connector-curvature="0"
       style="clip-rule:nonzero;fill:#000000;fill-rule:evenodd;stroke-width:1.77164996;stroke-miterlimit:4;stroke-dashoffset:0" />
    <path
       id="imagebot_28"
       d="m 478.19107,659.10681 -128.11679,49.16617 c -0.98199,0.81745 -3.76936,3.90793 -5.56766,4.28591 -2.11502,0.44458 -4.34852,-2.35557 -6.98499,0.82735 -2.21405,6.32 -2.47821,10.65886 -1.74961,16.55374 0.95525,7.72903 1.41972,9.93402 3.96717,16.78432 l 129.93429,-52.70612 c 1.79017,-5.62071 -0.84842,-11.14493 -1.69538,-16.14684 -0.28201,-1.86149 -0.23746,-3.5051 0.63068,-5.5812 0.86814,-2.07614 3.89113,-3.41732 7.08669,-6.93075 1.89565,-2.08419 2.31439,-4.16839 2.4956,-6.25258 z m -7.4122,6.62555 c 0.45037,2.4612 -4.00706,2.11135 -6.17799,4.84205 -0.45558,0.57305 -0.80387,1.22949 -1.09182,1.91239 -1.65555,0.56312 -8.0109,2.71675 -11.39298,3.96717 -14.07682,5.20455 -42.16434,15.85807 -41.81497,16.70294 0.34937,0.84492 27.93048,-10.78706 41.97094,-15.36696 3.60061,-1.17449 9.14195,-2.89594 10.66057,-3.37041 -0.43048,1.86003 -0.49274,3.62846 -0.37975,4.37407 0.68974,4.55286 1.35254,7.72695 1.28171,10.91827 l -121.32174,50.42753 c -1.76798,-4.27821 -2.99903,-8.32975 -3.25513,-12.69504 1.36764,-0.51294 32.44378,-12.1731 48.76603,-19.08323 14.34112,-6.07144 44.23249,-16.63013 43.65278,-17.48959 -0.57971,-0.85946 -30.25407,9.6043 -44.5547,16.10614 -15.34526,6.9768 -44.18513,17.57907 -47.92515,18.61533 0.0229,-2.74077 0.43033,-5.62265 1.39024,-8.79564 0.89853,0.11416 4.32033,0.28739 5.23534,0.14243 2.04277,-0.32375 3.48336,-2.10277 5.52693,-4.12318 4.5572,-1.73607 119.42969,-47.08423 119.42969,-47.08423 l 0,-4e-5 z m -60.28787,40.4858 c -15.16769,6.11358 -54.91382,22.72819 -54.98472,23.49804 -0.0709,0.76984 40.55722,-15.85202 55.57471,-21.9654 13.81026,-5.622 48.51923,-18.53141 45.93328,-18.66106 -2.58598,-0.12965 -33.67914,11.95138 -46.52327,17.12842 z"
       stroke-miterlimit="4"
       label="Ebene 2"
       inkscape:connector-curvature="0"
       style="clip-rule:nonzero;fill:#000000;fill-rule:evenodd;stroke-width:1.77164996;stroke-miterlimit:4;stroke-dashoffset:0" />
    <path
       id="imagebot_26"
       d="m 191.15738,551.47083 11.35521,-3.069 120.91757,-0.92067 134.72794,82.24851 -5.52415,3.06896 -5.52415,16.26555 c 1.58562,4.3989 1.45504,12.23026 5.21725,12.27592 L 284.14729,702.77122 183.48494,584.30884 c 1.4898,-11.30191 -2.63227,-24.47441 7.67244,-32.83801 z"
       stroke-miterlimit="4"
       label="Ebene 2"
       inkscape:connector-curvature="0"
       style="fill:#ab37c8;fill-rule:evenodd;stroke:#ff0000;stroke-width:1.00883245;stroke-miterlimit:4" />
    <path
       id="imagebot_23"
       d="m 324.4265,544.24789 -123.74273,1.20036 c -0.80418,1.14574 -2.72466,2.83417 -3.66204,3.0449 -0.98577,0.22163 -3.65811,-1.94694 -5.29637,-1.31563 -7.4296,2.86309 -8.19101,11.58305 -9.46702,16.41812 -2.29419,8.69304 -0.24889,21.90987 2.36675,25.83764 3.90617,4.55719 93.02564,110.05999 96.42668,113.41447 3.92846,3.87467 7.5273,4.40324 14.07848,2.69227 29.25396,-7.64033 114.38706,-26.18694 168.16857,-40.82486 3.17178,-1.65923 1.86781,-4.40348 -0.45436,-6.60524 l -12.89847,-7.83267 c 0.0599,3.52672 0.56165,6.74072 1.60045,10.05023 -49.9782,11.52684 -109.5032,24.49381 -160.1935,35.90149 -4.40935,-1.55136 -8.87617,-8.471 -9.38567,-12.07794 -1.40962,-9.97965 0.46957,-14.71288 2.3871,-17.48959 1.90961,-2.76525 3.37858,-4.43879 5.12687,-5.52693 1.93197,0.19871 4.78941,1.02321 6.48993,0.38652 1.80201,-0.67467 3.06323,-1.99058 4.38765,-3.22121 l 160.85807,-25.10526 c 2.49925,-1.88847 0.89199,-4.53366 -0.35263,-5.66259 L 324.4265,544.24789 Z m -1.45126,7.22912 125.82466,76.88911 -152.29301,23.41665 c -1.67688,0.85626 -2.26506,2.80629 -3.01098,3.08559 -0.74595,0.27927 -3.14472,-0.28628 -5.16756,-0.48148 -4.20057,1.23546 -9.64104,8.85311 -10.96574,14.26157 -3.02959,12.36914 -0.69887,18.74512 4.80132,27.54659 L 190.64031,586.23241 c -2.21033,-3.36514 -3.46284,-9.00717 -1.99378,-18.18131 0.72884,-4.55143 2.27044,-8.95405 4.61143,-12.70181 1.48039,0.11326 2.79918,1.16261 5.26926,0.3662 3.1807,-1.02553 3.12528,-3.44694 3.88582,-3.73662 z m -122.24279,8.17427 c -1.7076,1.55507 28.59783,30.58805 43.54303,46.14588 15.12328,15.74317 43.37434,48.38892 45.61943,46.65698 2.24506,-1.73197 -27.7577,-33.4982 -42.81866,-49.16616 -14.55396,-15.14055 -44.63619,-45.19177 -46.3438,-43.6367 z"
       stroke-miterlimit="4"
       label="Ebene 2"
       inkscape:connector-curvature="0"
       style="clip-rule:nonzero;fill:#000000;fill-rule:evenodd;stroke-width:1.77164996;stroke-miterlimit:4;stroke-dashoffset:0" />
    <path
       id="imagebot_22"
       d="m 456.83601,633.87951 c -52.66786,7.56591 -128.74931,19.05021 -156.4433,24.26434 -1.11036,1.52496 -2.97792,2.84785 -5.34385,3.39753 -0.89508,0.20795 -3.08083,-0.20854 -5.54731,-0.42721 -5.83011,3.79596 -8.31871,11.60561 -7.53428,18.81876 1.00418,9.23372 4.77226,12.78983 9.74177,16.3435 53.33111,-11.83113 106.66222,-21.56488 159.99337,-35.93537 -3.8553,-11.98693 -0.235,-19.07848 5.1336,-26.46155 z m -11.3116,6.61197 c -2.0162,3.91322 -2.3479,6.50434 -1.77676,10.89793 -1.13046,0.21246 -13.78394,2.58255 -20.55484,3.90616 -8.23187,1.60924 -24.23892,3.93461 -24.26434,5.12687 -0.0253,1.19227 16.6543,-1.53712 24.82721,-3.22802 6.03369,-1.24834 17.27654,-2.6013 20.15474,-4.76743 0.15271,1.023 0.29309,1.99763 0.52218,3.25514 l -151.09946,35.56239 c -1.94642,-1.17945 -3.62111,-3.49082 -4.82844,-5.94063 2.59171,-0.50416 26.87237,-5.21885 39.68554,-7.21554 14.75218,-2.29888 44.1336,-8.636 43.72735,-9.69083 -0.4062,-1.05481 -28.04071,6.04178 -43.96471,7.70382 -13.24763,1.38272 -38.02019,6.54073 -40.37726,7.03246 -0.46214,-1.2988 -0.80297,-2.56231 -0.87484,-3.63489 -0.37326,-5.5719 -0.51544,-9.33581 4.36734,-14.26157 1.05421,0.85772 3.38357,1.41837 5.24891,1.0172 2.71182,-0.58318 3.95575,-1.28192 5.63544,-3.13983 l 143.57194,-22.62323 z m -19.24601,8.72784 c -2.66105,-0.48135 -38.3048,6.26667 -56.71398,9.18223 -25.31144,4.00866 -76.18451,10.6672 -75.6006,12.14571 0.58391,1.47851 51.34789,-6.45371 76.86873,-10.67414 19.37753,-3.20448 58.10694,-10.17242 55.44585,-10.6538 z"
       stroke-miterlimit="4"
       label="Ebene 2"
       inkscape:connector-curvature="0"
       style="clip-rule:nonzero;fill:#000000;fill-rule:evenodd;stroke-width:1.77164996;stroke-miterlimit:4;stroke-dashoffset:0" />
    <path
       id="imagebot_20"
       d="M 319.44049,498.68446 187.47461,517.4052 c -4.46285,11.51438 -11.52607,21.59857 -0.3069,41.73807 l 138.10384,104.95889 155.90387,-46.34151 -11.66211,-6.44482 c 0.28097,-12.09516 3.33791,-22.67497 9.82073,-35.60011 L 319.44049,498.68446 Z"
       stroke-miterlimit="4"
       label="Ebene 2"
       inkscape:connector-curvature="0"
       style="fill:#2a7fff;fill-rule:evenodd;stroke:#ff6600;stroke-width:1.00883245;stroke-miterlimit:4" />
    <path
       id="imagebot_17"
       d="m 319.55733,496.58725 -130.95149,17.38786 c -6.72569,1.92367 -10.56432,16.62384 -10.27402,25.51216 0.22705,6.95217 4.05763,17.95891 8.40909,22.77239 l 139.44201,106.0497 161.65829,-46.96215 c 2.03385,-2.64682 1.03731,-4.08148 0.27128,-5.60832 l -15.21776,-9.23647 c 0,0 0.3594,6.63913 -0.0746,10.97931 -41.56074,10.90838 -107.281,28.92483 -146.14217,39.86866 -2.39339,-2.40408 -5.65558,-11.68697 -5.83891,-17.63879 -0.31294,-10.15929 1.23074,-16.59096 5.1743,-20.1547 L 488.4651,582.97727 c 1.88535,-1.22164 2.10732,-4.23099 -0.64422,-6.89006 L 319.55733,496.58725 Z m -0.44079,5.60155 154.36137,75.43782 -154.47664,34.36884 c -5.446,6.64757 -6.81229,13.93561 -6.6866,21.23302 0.10504,6.09806 1.76306,15.08527 4.67924,19.84954 L 191.1896,556.05455 c -3.12014,-2.8122 -5.38898,-11.72565 -5.39811,-15.70602 -0.014,-6.13733 2.08228,-12.18074 5.66939,-19.88349 z m -120.75831,22.716 c -3.21687,1.40573 51.84434,40.64392 51.84434,40.64392 0,0 63.93991,46.56546 64.71621,44.39873 0.77627,-2.16672 -60.18617,-48.69822 -60.18617,-48.69822 0,0 -53.15747,-37.75016 -56.37438,-36.34443 z"
       stroke-miterlimit="4"
       label="Ebene 2"
       inkscape:connector-curvature="0"
       style="clip-rule:nonzero;fill:#000000;fill-rule:evenodd;stroke-width:1.77164996;stroke-miterlimit:4;stroke-dashoffset:0" />
    <path
       id="imagebot_16"
       d="m 481.05289,584.59126 -7.0053,1.57334 -146.25068,32.48357 c -2.68216,2.89459 -7.17804,8.63947 -5.77786,21.13125 0.71727,6.39927 2.34255,12.1506 6.25934,17.2658 l 144.56207,-39.49567 c 0.59332,-3.71187 0.0584,-11.15466 0.52218,-16.52659 0.46384,-5.37197 2.21672,-7.31314 3.99432,-10.27405 l 3.69593,-6.15765 z m -11.39976,7.73098 c -0.74654,2.6689 -1.86072,5.1559 -2.38033,7.93438 -1.75576,-0.0612 -4.35171,-0.11347 -5.87279,0.20343 -8.94095,1.86277 -26.77175,6.81749 -26.25134,7.84626 0.5204,1.02876 16.67929,-4.8417 26.90237,-5.4795 1.47896,-0.0923 3.41562,0.0104 4.88948,0.1085 -0.13903,1.67149 -0.21177,3.03556 -0.27128,4.37411 -15.88379,4.00106 -33.55428,8.29645 -49.38995,12.19321 -20.39043,5.01753 -50.73637,11.60541 -50.34614,13.2986 0.39024,1.69316 30.70813,-6.56684 50.94971,-11.54899 15.82521,-3.89509 32.84134,-7.59212 48.72534,-11.56249 0.0184,1.07956 0.0815,2.05791 0.2577,2.83466 l -134.85085,36.65425 c -4.24324,-1.70406 -4.27144,-6.25028 -4.73355,-9.7383 -0.69856,-5.27298 -0.70689,-11.35243 2.78724,-14.17341 z m -77.36379,23.58616 c -22.24528,5.49155 -62.96934,16.26823 -62.60716,17.3472 0.36218,1.07893 40.94871,-9.88934 62.92591,-15.85525 11.622,-3.1549 35.45253,-9.00023 33.32966,-9.56428 -2.12283,-0.56405 -22.76861,5.38652 -33.64841,8.07233 z"
       stroke-miterlimit="4"
       label="Ebene 2"
       inkscape:connector-curvature="0"
       style="clip-rule:nonzero;fill:#000000;fill-rule:evenodd;stroke-width:1.77164996;stroke-miterlimit:4;stroke-dashoffset:0" />
    <path
       id="imagebot_14"
       d="m 340.00262,460.0154 -127.36244,36.21391 c 0,0 -1.53448,4.91034 -3.37586,4.60344 -1.84139,-0.3069 -9.51382,-0.3069 -9.51382,-0.3069 -6.82805,8.70734 -6.98017,16.9696 -1.53449,24.8587 l 181.68325,89.00024 135.64865,-49.1036 -6.13792,-5.21725 6.44482,-9.51382 0.30694,-15.03798 -176.15913,-75.49674 z"
       stroke-miterlimit="4"
       label="Ebene 2"
       inkscape:connector-curvature="0"
       style="fill:#aad400;fill-rule:evenodd;stroke:#ff6600;stroke-width:1.00883245;stroke-miterlimit:4" />
    <path
       id="imagebot_11"
       d="m 340.1054,457.77652 c -42.8187,11.916 -91.22266,24.72454 -130.19196,34.99949 -0.75971,0.48225 -1.03807,2.35658 -2.69904,4.05537 -0.72388,0.74033 -3.75874,-0.8211 -4.83525,-0.6985 -1.68635,0.19205 -3.63106,1.60855 -4.99121,2.80755 -1.85496,1.63524 -2.41116,3.23871 -3.23479,5.51342 -0.85057,2.34905 -0.82734,4.9634 -1.01723,7.89369 -0.37979,5.8606 0.70745,12.72705 3.16017,15.95017 60.13204,29.74402 124.50701,62.85272 182.06397,90.86583 1.21004,0.93689 3.91516,1.08126 5.45235,0.82057 1.53722,-0.26069 2.84883,-0.77474 3.32975,-1.80388 0.30548,-0.6537 1.21928,-1.90357 2.21756,-2.55665 1.01571,-0.66446 1.97871,1.02307 4.2656,0.98335 l 125.7365,-48.10824 c 1.40174,-0.53638 2.3229,-2.56977 0.007,-4.43515 l -8.01577,-5.15395 -4.01467,6.01522 c -37.34163,12.83274 -79.51465,28.30724 -119.00262,42.77116 -3.01472,-0.64439 -6.50316,-6.99575 -6.68659,-9.98919 -0.20465,-3.33913 1.48587,-7.17815 2.52272,-8.82957 43.82781,-16.32423 91.54776,-32.54555 138.98084,-49.36283 2.22696,-1.25542 1.58344,-3.23243 -0.34583,-5.52696 l -182.7015,-76.2109 z m -0.21024,5.54728 170.52178,74.36635 -127.18775,43.84264 c -2.91487,1.09983 -4.71889,3.45485 -6.25257,5.6965 -1.99482,2.91564 -3.36406,7.26381 -3.0449,12.47126 0.29513,4.81594 1.49299,8.06028 3.11948,10.66734 L 201.67386,523.48962 c -2.31409,-3.40406 -2.21954,-6.50479 -1.99378,-10.58598 0.1776,-3.21042 1.05553,-6.02373 2.93643,-8.40232 0.22201,-0.28076 2.72484,-2.18892 5.33027,-0.71207 1.07779,0.61092 2.12537,0.63162 3.96043,-0.68495 2.25964,-1.62115 1.4714,-3.1057 3.03136,-4.36053 l 124.95662,-35.41997 -3e-5,0 z M 213.8196,502.90086 c -0.43832,-0.082 -0.69877,-0.0636 -0.77311,0.0543 -1.18896,1.88607 50.06688,26.26121 75.47175,38.65476 28.07606,13.69672 84.01691,41.01742 85.01338,39.44145 0.99644,-1.57601 -55.67873,-29.06844 -83.92833,-42.77797 -23.70456,-11.50382 -69.2089,-34.1417 -75.78369,-35.37251 z"
       stroke-miterlimit="4"
       label="Ebene 2"
       inkscape:connector-curvature="0"
       style="clip-rule:nonzero;fill:#000000;fill-rule:evenodd;stroke-width:2.48030996;stroke-miterlimit:4;stroke-dashoffset:0" />
    <path
       id="imagebot_10"
       d="m 518.7786,541.14195 c -46.39185,15.17499 -110.61373,39.22194 -134.19985,47.33513 -2.66863,2.93272 -2.47301,6.66534 -1.58688,10.10451 0.88609,3.43916 3.71589,8.22437 5.77109,9.05334 l 119.64667,-42.87967 c 0.91123,-1.26032 4.74288,-4.80837 7.30369,-8.74818 1.28043,-1.96988 2.27183,-5.21054 2.77366,-7.35796 0.50183,-2.14742 1.32778,-5.95661 0.29166,-7.50717 l -4e-5,0 z m -4.46226,4.4148 c 0.88651,2.81484 -1.06769,5.01955 -2.39387,7.18842 -2.11079,3.45191 -4.91941,6.90604 -6.77475,9.37887 l -114.81146,41.17071 c -1.84954,-0.97002 -3.33538,-3.07636 -3.98075,-5.5812 -0.66255,-2.57144 -0.44235,-5.32124 0.2984,-6.4967 z m -60.85751,24.48135 c -19.94655,7.27998 -60.09284,20.24502 -59.5148,22.39942 0.57804,2.15439 40.46267,-13.54089 60.59304,-20.91428 18.93817,-6.93669 54.95212,-20.12161 54.23713,-21.00548 -0.71498,-0.88387 -37.38357,12.97566 -55.31537,19.52034 z m 51.716,-11.81346 c -0.43506,-0.53679 -14.89832,4.50511 -22.01289,7.21557 -6.6967,2.55127 -93.3348,33.55303 -92.93418,34.61975 0.40061,1.06671 87.29819,-30.55709 94.0735,-33.10745 7.05679,-2.65633 21.3086,-8.19104 20.87357,-8.72787 z"
       stroke-miterlimit="4"
       label="Ebene 2"
       inkscape:connector-curvature="0"
       style="clip-rule:nonzero;fill:#000000;fill-rule:evenodd;stroke-width:1px;stroke-miterlimit:4;stroke-dashoffset:0" />
    <path
       id="imagebot_8"
       d="m 350.43712,417.97047 -142.40038,28.23456 c -10.41259,10.06288 -14.12011,22.68007 -7.36553,39.28284 l 144.54866,96.36578 167.87288,-42.35184 -14.73107,-10.43449 -1.22761,-15.95869 13.50349,-18.41384 -160.20044,-76.72432 z"
       stroke-miterlimit="4"
       label="Ebene 2"
       inkscape:connector-curvature="0"
       style="fill:#aa0000;fill-rule:evenodd;stroke:#ff6600;stroke-width:1.00883245;stroke-miterlimit:4" />
    <path
       id="imagebot_7"
       d="m 351.04401,415.99544 -146.44053,28.48925 c 0,0 -9.63924,10.92028 -9.48736,22.16206 0.14763,10.92955 1.43438,17.42188 4.56396,20.55487 4.56171,3.17934 145.51826,98.52896 145.51826,98.52896 L 515.0623,541.03345 c 1.75169,-2.15155 0.46134,-3.79624 -0.84089,-5.43877 l -13.00021,-5.83894 1.13251,5.94063 c -50.04666,13.28326 -102.89424,26.99331 -153.71034,39.60419 -0.69106,-2.94463 -3.0966,-11.1791 -3.32295,-14.05814 -0.86428,-10.99205 6.44417,-21.04187 7.40543,-22.31802 l 160.56648,-38.03766 c 1.75771,-2.36505 1.25595,-5.49318 -0.63068,-7.33762 L 351.04401,415.99544 Z m -0.41367,5.10652 152.7813,74.27139 -153.92058,38.49879 c 0,0 -11.61339,11.61333 -10.59956,27.1465 0.37173,5.69526 3.37847,13.68249 3.93332,15.84845 l -137.31938,-91.5779 c -2.80379,-2.91042 -3.70047,-8.80911 -3.83835,-19.01542 -0.0892,-6.6051 5.10912,-15.49151 5.89317,-16.18073 z m -140.49312,29.87266 c -0.80613,1.63458 43.61229,27.99436 65.8623,41.24533 23.55251,14.02664 69.4375,42.36346 71.54523,40.58749 2.10777,-1.77597 -45.8037,-29.30055 -69.15133,-43.20518 -22.4549,-13.37298 -67.45007,-40.26222 -68.2562,-38.62764 z"
       stroke-miterlimit="4"
       label="Ebene 2"
       inkscape:connector-curvature="0"
       style="clip-rule:nonzero;fill:#000000;fill-rule:evenodd;stroke-width:2.1259799;stroke-miterlimit:4;stroke-dashoffset:0" />
    <path
       id="imagebot_6"
       d="m 510.12535,500.53411 c -0.48131,0.056 -1.00345,0.29228 -1.27493,0.3594 l -154.89713,37.6986 c -3.59301,5.96581 -7.17286,11.87152 -7.85299,18.27624 -0.63891,6.01647 2.36408,13.93015 3.445,19.25278 l 152.82876,-40.14671 c -1.16185,-5.93473 -1.94103,-11.36187 -2.00735,-16.17395 -0.0807,-5.85717 2.60473,-10.17701 5.24214,-13.20368 1.31869,-1.5133 2.32641,-1.85899 3.36365,-2.60411 0.86654,-0.62249 1.87291,-1.12418 2.22432,-1.7225 0.16458,-0.28016 0.10208,-0.49769 -0.007,-1.03081 -0.12951,-0.6403 -0.581,-0.76154 -1.0647,-0.70526 l 1.7e-4,0 z m -13.47492,7.59532 c -2.34772,2.86991 -2.96441,4.99243 -3.10594,7.22235 -10.24019,1.49417 -42.9398,8.59398 -60.688,12.65434 -20.63962,4.72185 -61.84749,14.80066 -61.53565,15.86202 0.31183,1.06133 41.69771,-8.61683 62.42404,-13.35964 17.71354,-4.05339 49.60091,-11.13726 59.76569,-14.11914 -0.005,1.33153 0.0616,2.7273 0.0678,4.41476 0.0271,7.35821 1.08064,9.91642 1.3699,11.23702 l -142.55471,35.65055 c -0.4911,-1.3207 -0.78734,-2.39054 -1.01047,-3.39756 3.03303,0.026 12.31155,-1.73542 17.25901,-2.94997 6.42319,-1.57681 27.79558,-7.6179 27.7026,-8.49048 -0.093,-0.87259 -21.93762,4.87458 -28.55029,6.4967 -4.85833,1.19178 -13.77411,2.9415 -16.56051,4.10283 -0.32836,-1.97624 -0.28413,-3.80676 -0.10174,-6.67982 0.43965,-6.92534 3.60607,-11.10487 4.12995,-11.89482 z m -84.9998,33.66355 c -17.99201,3.95276 -53.68513,11.17233 -53.60128,12.72216 0.0838,1.54986 36.35113,-6.20657 54.34046,-10.15874 19.97822,-4.38911 59.94406,-13.81814 57.10409,-14.31355 -2.83994,-0.49541 -39.11617,7.63588 -57.84327,11.75013 z"
       stroke-miterlimit="4"
       label="Ebene 2"
       inkscape:connector-curvature="0"
       style="clip-rule:nonzero;fill:#000000;fill-rule:evenodd;stroke-width:1px;stroke-miterlimit:4;stroke-dashoffset:0" />
    <flowRoot
       xml:space="preserve"
       id="flowRoot4582"
       style="font-style:normal;font-weight:normal;font-size:40px;line-height:125%;font-family:sans-serif;letter-spacing:0px;word-spacing:0px;fill:#000000;fill-opacity:1;stroke:none;stroke-width:1px;stroke-linecap:butt;stroke-linejoin:miter;stroke-opacity:1"><flowRegion
         id="flowRegion4584"><rect
           id="rect4586"
           width="182.83762"
           height="61.114227"
           x="66.670067"
           y="716.99158" /></flowRegion><flowPara
         id="flowPara4588">Architecture</flowPara></flowRoot>    <text
       xml:space="preserve"
       style="font-style:normal;font-weight:normal;font-size:22.57474518px;line-height:125%;font-family:sans-serif;letter-spacing:0px;word-spacing:0px;fill:#000000;fill-opacity:1;stroke:none;stroke-width:1px;stroke-linecap:butt;stroke-linejoin:miter;stroke-opacity:1"
       x="530.3645"
       y="318.05798"
       id="text4252"
       sodipodi:linespacing="125%"
       transform="matrix(0.80423535,0.64012666,-0.7487355,0.64746526,0,0)"><tspan
         sodipodi:role="line"
         id="tspan4254"
         x="530.3645"
         y="318.05798">Architecture</tspan></text>
    <text
       xml:space="preserve"
       style="font-style:normal;font-weight:normal;font-size:24.16613197px;line-height:125%;font-family:sans-serif;letter-spacing:0px;word-spacing:0px;fill:#000000;fill-opacity:1;stroke:none;stroke-width:1px;stroke-linecap:butt;stroke-linejoin:miter;stroke-opacity:1"
       x="588.57898"
       y="240.01117"
       id="text4252-5"
       sodipodi:linespacing="125%"
       transform="matrix(0.66553124,0.78025408,-0.84692092,0.50964775,0,0)"><tspan
         sodipodi:role="line"
         id="tspan4254-8"
         x="588.57898"
         y="240.01117">Handbook</tspan></text>
    <text
       xml:space="preserve"
       style="font-style:normal;font-weight:normal;font-size:24.16613197px;line-height:125%;font-family:sans-serif;letter-spacing:0px;word-spacing:0px;fill:#000000;fill-opacity:1;stroke:none;stroke-width:1px;stroke-linecap:butt;stroke-linejoin:miter;stroke-opacity:1"
       x="605.71204"
       y="438.01797"
       id="text4252-5-6"
       sodipodi:linespacing="125%"
       transform="matrix(0.84878363,0.57558198,-0.68123873,0.71619108,0,0)"><tspan
         sodipodi:role="line"
         id="tspan4254-8-2"
         x="605.71204"
         y="438.01797">Bugs</tspan></text>
    <text
       xml:space="preserve"
       style="font-style:normal;font-weight:normal;font-size:21.12054253px;line-height:125%;font-family:sans-serif;letter-spacing:0px;word-spacing:0px;fill:#000000;fill-opacity:1;stroke:none;stroke-width:1px;stroke-linecap:butt;stroke-linejoin:miter;stroke-opacity:1"
       x="475.10745"
       y="295.3902"
       id="text4252-8"
       sodipodi:linespacing="125%"
       transform="matrix(0.86265752,0.56433587,-0.69522825,0.70440209,0,0)"><tspan
         sodipodi:role="line"
         id="tspan4254-4"
         x="475.10745"
         y="295.3902">Requirements</tspan></text>
    <text
       xml:space="preserve"
       style="font-style:normal;font-weight:normal;font-size:21.12054253px;line-height:125%;font-family:sans-serif;letter-spacing:0px;word-spacing:0px;fill:#000000;fill-opacity:1;stroke:none;stroke-width:1px;stroke-linecap:butt;stroke-linejoin:miter;stroke-opacity:1"
       x="484.66943"
       y="376.51968"
       id="text4252-8-7"
       sodipodi:linespacing="125%"
       transform="matrix(0.91361847,0.47744556,-0.62315884,0.7688938,0,0)"
       inkscape:transform-center-x="-0.083180184"
       inkscape:transform-center-y="-0.23592252"><tspan
         sodipodi:role="line"
         id="tspan4254-4-2"
         x="484.66943"
         y="376.51968">Analysis</tspan></text>
  </g>
</svg>
