<?xml version="1.0" encoding="UTF-8" standalone="no"?><svg xmlns="http://www.w3.org/2000/svg" xmlns:xlink="http://www.w3.org/1999/xlink" contentScriptType="application/ecmascript" contentStyleType="text/css" height="312px" preserveAspectRatio="none" style="width:524px;height:312px;" version="1.1" viewBox="0 0 524 312" width="524px" zoomAndPan="magnify"><defs><filter height="300%" id="f1ktoms2rk88s4" width="300%" x="-1" y="-1"><feGaussianBlur result="blurOut" stdDeviation="2.0"/><feColorMatrix in="blurOut" result="blurOut2" type="matrix" values="0 0 0 0 0 0 0 0 0 0 0 0 0 0 0 0 0 0 .4 0"/><feOffset dx="4.0" dy="4.0" in="blurOut2" result="blurOut3"/><feBlend in="SourceGraphic" in2="blurOut3" mode="normal"/></filter></defs><g><line style="stroke: #A80036; stroke-width: 1.0; stroke-dasharray: 5.0,5.0;" x1="34" x2="34" y1="38.2969" y2="272.0938"/><line style="stroke: #A80036; stroke-width: 1.0; stroke-dasharray: 5.0,5.0;" x1="145" x2="145" y1="38.2969" y2="272.0938"/><line style="stroke: #A80036; stroke-width: 1.0; stroke-dasharray: 5.0,5.0;" x1="277" x2="277" y1="38.2969" y2="272.0938"/><line style="stroke: #A80036; stroke-width: 1.0; stroke-dasharray: 5.0,5.0;" x1="395" x2="395" y1="38.2969" y2="272.0938"/><rect fill="#FEFECE" filter="url(#f1ktoms2rk88s4)" height="30.2969" style="stroke: #A80036; stroke-width: 1.5;" width="48" x="8" y="3"/><text fill="#000000" font-family="sans-serif" font-size="14" lengthAdjust="spacingAndGlyphs" textLength="34" x="15" y="22.9951">Mr. A</text><rect fill="#FEFECE" filter="url(#f1ktoms2rk88s4)" height="30.2969" style="stroke: #A80036; stroke-width: 1.5;" width="48" x="8" y="271.0938"/><text fill="#000000" font-family="sans-serif" font-size="14" lengthAdjust="spacingAndGlyphs" textLength="34" x="15" y="291.0889">Mr. A</text><rect fill="#FEFECE" filter="url(#f1ktoms2rk88s4)" height="30.2969" style="stroke: #A80036; stroke-width: 1.5;" width="52" x="117" y="3"/><text fill="#000000" font-family="sans-serif" font-size="14" lengthAdjust="spacingAndGlyphs" textLength="38" x="124" y="22.9951">Ms. B</text><rect fill="#FEFECE" filter="url(#f1ktoms2rk88s4)" height="30.2969" style="stroke: #A80036; stroke-width: 1.5;" width="52" x="117" y="271.0938"/><text fill="#000000" font-family="sans-serif" font-size="14" lengthAdjust="spacingAndGlyphs" textLength="38" x="124" y="291.0889">Ms. B</text><rect fill="#FEFECE" filter="url(#f1ktoms2rk88s4)" height="30.2969" style="stroke: #A80036; stroke-width: 1.5;" width="72" x="239" y="3"/><text fill="#000000" font-family="sans-serif" font-size="14" lengthAdjust="spacingAndGlyphs" textLength="58" x="246" y="22.9951">Expert C</text><rect fill="#FEFECE" filter="url(#f1ktoms2rk88s4)" height="30.2969" style="stroke: #A80036; stroke-width: 1.5;" width="72" x="239" y="271.0938"/><text fill="#000000" font-family="sans-serif" font-size="14" lengthAdjust="spacingAndGlyphs" textLength="58" x="246" y="291.0889">Expert C</text><rect fill="#FEFECE" filter="url(#f1ktoms2rk88s4)" height="30.2969" style="stroke: #A80036; stroke-width: 1.5;" width="86" x="350" y="3"/><text fill="#000000" font-family="sans-serif" font-size="14" lengthAdjust="spacingAndGlyphs" textLength="72" x="357" y="22.9951">Office Dog</text><rect fill="#FEFECE" filter="url(#f1ktoms2rk88s4)" height="30.2969" style="stroke: #A80036; stroke-width: 1.5;" width="86" x="350" y="271.0938"/><text fill="#000000" font-family="sans-serif" font-size="14" lengthAdjust="spacingAndGlyphs" textLength="72" x="357" y="291.0889">Office Dog</text><polygon fill="#A80036" points="133,65.4297,143,69.4297,133,73.4297,137,69.4297" style="stroke: #A80036; stroke-width: 1.0;"/><line style="stroke: #A80036; stroke-width: 1.0;" x1="34" x2="139" y1="69.4297" y2="69.4297"/><text fill="#000000" font-family="sans-serif" font-size="13" lengthAdjust="spacingAndGlyphs" textLength="87" x="41" y="64.3638">Creates issue</text><line style="stroke: #A80036; stroke-width: 1.0;" x1="145" x2="187" y1="98.5625" y2="98.5625"/><line style="stroke: #A80036; stroke-width: 1.0;" x1="187" x2="187" y1="98.5625" y2="111.5625"/><line style="stroke: #A80036; stroke-width: 1.0;" x1="146" x2="187" y1="111.5625" y2="111.5625"/><polygon fill="#A80036" points="156,107.5625,146,111.5625,156,115.5625,152,111.5625" style="stroke: #A80036; stroke-width: 1.0;"/><text fill="#000000" font-family="sans-serif" font-size="13" lengthAdjust="spacingAndGlyphs" textLength="89" x="152" y="93.4966">Analysis issue</text><polygon fill="#A80036" points="265,136.6953,275,140.6953,265,144.6953,269,140.6953" style="stroke: #A80036; stroke-width: 1.0;"/><line style="stroke: #A80036; stroke-width: 1.0;" x1="145" x2="271" y1="140.6953" y2="140.6953"/><text fill="#000000" font-family="sans-serif" font-size="13" lengthAdjust="spacingAndGlyphs" textLength="108" x="152" y="135.6294">Provides solution</text><line style="stroke: #A80036; stroke-width: 1.0;" x1="277" x2="319" y1="169.8281" y2="169.8281"/><line style="stroke: #A80036; stroke-width: 1.0;" x1="319" x2="319" y1="169.8281" y2="182.8281"/><line style="stroke: #A80036; stroke-width: 1.0;" x1="278" x2="319" y1="182.8281" y2="182.8281"/><polygon fill="#A80036" points="288,178.8281,278,182.8281,288,186.8281,284,182.8281" style="stroke: #A80036; stroke-width: 1.0;"/><text fill="#000000" font-family="sans-serif" font-size="13" lengthAdjust="spacingAndGlyphs" textLength="104" x="284" y="164.7622">Reviews solution</text><polygon fill="#A80036" points="45,207.9609,35,211.9609,45,215.9609,41,211.9609" style="stroke: #A80036; stroke-width: 1.0;"/><line style="stroke: #A80036; stroke-width: 1.0;" x1="39" x2="276" y1="211.9609" y2="211.9609"/><text fill="#000000" font-family="sans-serif" font-size="13" lengthAdjust="spacingAndGlyphs" textLength="104" x="51" y="206.895">Informs reporter</text><line style="stroke: #A80036; stroke-width: 1.0;" x1="395" x2="437" y1="241.0938" y2="241.0938"/><line style="stroke: #A80036; stroke-width: 1.0;" x1="437" x2="437" y1="241.0938" y2="254.0938"/><line style="stroke: #A80036; stroke-width: 1.0;" x1="396" x2="437" y1="254.0938" y2="254.0938"/><polygon fill="#A80036" points="406,250.0938,396,254.0938,406,258.0938,402,254.0938" style="stroke: #A80036; stroke-width: 1.0;"/><text fill="#000000" font-family="sans-serif" font-size="13" lengthAdjust="spacingAndGlyphs" textLength="110" x="402" y="236.0278">Barks for support</text><!--MD5=[743fffaf6c85585681889e05a65022af]
@startuml


participant "Mr. A" as USER_A
participant "Ms. B" as USER_B
participant "Expert C" as USER_C
participant "Office Dog" as USER_D


USER_A -> USER_B: Creates issue
USER_B -> USER_B: Analysis issue
USER_B -> USER_C: Provides solution
USER_C -> USER_C: Reviews solution
USER_C -> USER_A: Informs reporter
USER_D -> USER_D: Barks for support

@enduml

PlantUML version 1.2020.09(Sun May 10 10:51:06 UTC 2020)
(GPL source distribution)
Java Runtime: OpenJDK Runtime Environment
JVM: OpenJDK 64-Bit Server VM
Java Version: 11.0.8+10-post-Ubuntu-0ubuntu118.04.1
Operating System: Linux
Default Encoding: UTF-8
Language: en
Country: null
--></g></svg>