<?xml version="1.0" encoding="UTF-8" standalone="no"?>
<!-- Created with Inkscape (http://www.inkscape.org/) -->

<svg
   xmlns:dc="http://purl.org/dc/elements/1.1/"
   xmlns:cc="http://creativecommons.org/ns#"
   xmlns:rdf="http://www.w3.org/1999/02/22-rdf-syntax-ns#"
   xmlns:svg="http://www.w3.org/2000/svg"
   xmlns="http://www.w3.org/2000/svg"
   xmlns:sodipodi="http://sodipodi.sourceforge.net/DTD/sodipodi-0.dtd"
   xmlns:inkscape="http://www.inkscape.org/namespaces/inkscape"
   width="131.28412mm"
   height="127.0921mm"
   viewBox="0 0 465.17995 450.32634"
   id="svg2"
   version="1.1"
   inkscape:version="0.91 r13725"
   sodipodi:docname="team.svg">
  <defs
     id="defs4" />
  <sodipodi:namedview
     id="base"
     pagecolor="#303030"
     bordercolor="#666666"
     borderopacity="1.0"
     inkscape:pageopacity="0"
     inkscape:pageshadow="2"
     inkscape:zoom="1.4"
     inkscape:cx="311.88479"
     inkscape:cy="186.66344"
     inkscape:document-units="px"
     inkscape:current-layer="layer1"
     showgrid="false"
     fit-margin-top="0"
     fit-margin-left="0"
     fit-margin-right="0"
     fit-margin-bottom="0"
     inkscape:window-width="2560"
     inkscape:window-height="1375"
     inkscape:window-x="1920"
     inkscape:window-y="0"
     inkscape:window-maximized="1" />
  <metadata
     id="metadata7">
    <rdf:RDF>
      <cc:Work
         rdf:about="">
        <dc:format>image/svg+xml</dc:format>
        <dc:type
           rdf:resource="http://purl.org/dc/dcmitype/StillImage" />
        <dc:title></dc:title>
      </cc:Work>
    </rdf:RDF>
  </metadata>
  <g
     inkscape:label="Ebene 1"
     inkscape:groupmode="layer"
     id="layer1"
     transform="translate(-181.33241,-221.50622)">
    <g
       transform="matrix(0.46229142,0,0,0.43385807,390.58425,244.61138)"
       inkscape:label="Layer 1"
       id="layer1-5"
       style="fill:#ffcc00">
      <path
         d="m 506.96,527.83 c 4.87,-3.25 44.36,-53.01 44.36,-53.01 0,0 2.16,5.41 1.08,-17.31 -1.08,-22.72 4.87,-138.48 -2.71,-157.4 -7.57,-18.94 -45.43,-95.2 -46.52,-98.99 -1.08,-3.79 -14.06,-21.64 -14.06,-21.64 l -13.52,-6.49 -13.52,-6.49 0,-8.11 c 0,-3.25 -4.33,-5.95 -8.66,-11.9 -4.32,-5.95 -11.36,-22.72 -12.98,-27.05 -1.62,-4.33 -3.78,-8.11 -5.95,-9.19 -2.17,-1.09 -9.19,0 -9.19,0 l -4.33,2.16 -2.17,-2.16 c 0,0 8.12,-6.49 8.12,-10.278 0,-3.785 3.24,-9.192 3.24,-9.192 l -1.08,-7.579 -1.62,-2.701 -2.71,-2.167 c 0,0 4.87,-5.408 4.87,-12.443 0,-7.024 -0.54,-23.256 -0.54,-23.256 0,0 -5.95,-17.306 -10.28,-20.556 -4.33,-3.24 -1.62,-5.412 -15.68,-9.192 -14.06,-3.7845 -20.02,-3.7845 -29.21,0 -9.2,3.78 -19.47,12.982 -19.47,12.982 0,0 -5.41,1.622 -7.03,7.574 -1.63,5.946 -5.42,21.095 -5.42,23.801 0,2.701 2.7,7.03 2.7,7.03 l -3.78,1.617 c 0,0 -4.32,3.251 -4.86,7.035 -0.55,3.79 0.54,12.982 0.54,12.982 0,0 -0.54,7.035 3.79,8.113 4.31,1.089 4.31,-0.539 4.31,-0.539 l 1.09,10.279 0.54,15.14 c 0,0 2.17,-0.53 -7.57,-1.07 -9.73,-0.55 -18.94,-1.63 -18.94,-1.63 l -7.02,2.17 c 0,0 -4.33,7.56 -4.33,7.56 0,0 2.7,-2.7 -2.16,9.74 -4.88,12.44 -6.5,15.14 -8.66,18.93 -2.17,3.79 -4.86,7.58 -1.62,12.99 3.24,5.4 -1.62,7.56 -1.62,7.56 0,0 -11.36,2.17 -21.64,10.28 -10.27,8.12 -15.15,18.93 -21.64,33 -6.48,14.06 -30.83,135.22 -33.53,168.22 -2.71,33 -5.42,54.63 2.7,82.22 8.11,27.59 11.9,32.45 11.9,32.45 l 13.52,8.66 5.41,5.4 c 0,0 3.79,8.66 3.79,8.66 0,0 -2.7,4.33 3.79,0 6.49,-4.33 9.19,-7.04 9.19,-7.04 l 3.25,1.09 2.7,5.95 5.41,2.71 1.08,5.4 c 0,0 1.63,12.45 0,23.81 -1.62,11.35 -3.79,28.12 -4.32,35.69 -0.55,7.58 -2.71,43.82 2.7,66.54 5.4,22.71 6.49,36.24 7.03,51.38 0.54,15.15 1.62,24.88 1.62,24.88 0,0 1.09,19.47 -0.53,45.44 -1.63,25.96 -4.33,38.4 0,44.89 4.32,6.49 7.02,13.52 7.02,13.52 0,0 -2.7,-0.54 -4.86,3.79 -2.16,4.33 -4.88,7.57 -4.88,14.07 0,6.49 5.96,24.34 5.96,24.34 l -5.41,17.84 0,10.82 c 0,0 3.24,5.95 3.24,5.95 0,0 -0.54,3.25 -5.94,15.15 -5.41,11.9 -9.2,12.98 -8.12,21.1 1.09,8.11 -2.7,14.6 3.79,18.93 6.48,4.32 28.12,10.27 28.12,10.27 0,0 2.71,-1.07 7.57,-3.25 4.88,-2.16 16.23,-5.95 16.23,-13.52 0,-7.57 0,-20.55 2.17,-21.09 2.16,-0.54 3.78,-1.08 3.78,-1.08 l 10.28,-9.2 c 0,0 -1.09,-8.11 -1.09,-11.9 0,-3.78 3.8,-8.66 3.8,-8.66 l 6.49,-15.14 c 0,0 2.16,-4.87 2.16,-4.87 0,0 2.7,-5.95 4.32,-10.81 1.63,-4.87 2.71,-11.36 2.71,-11.36 l -2.71,-1.63 2.71,-4.33 -3.78,-13.52 c 0,0 -13.53,-63.28 -9.2,-88.16 4.27,-24.56 8.65,-47.25 15.69,-66.54 3.51,-9.65 1.62,-21.63 1.62,-21.63 l 9.2,-43.28 -2.71,-21.09 4.87,0 c 0,0 -0.55,15.69 0.54,19.47 1.08,3.79 12.44,57.34 12.44,57.34 l 1.09,9.19 c 0,0 6.48,83.85 3.24,91.42 -3.24,7.57 -2.71,16.23 -4.33,25.42 -1.62,9.2 -3.24,27.05 0,33 3.24,5.94 11.35,9.73 11.35,9.73 0,0 3.26,5.41 -0.53,9.74 -3.79,4.32 -7.58,12.44 -7.58,12.44 0,0 2.71,1.63 4.87,2.7 2.17,1.09 5.42,2.71 5.42,2.71 l 1.08,9.74 c 0,0 0.53,9.73 2.7,14.06 2.16,4.33 4.32,10.28 4.32,10.28 0,0 0,18.38 2.17,20.55 2.16,2.16 9.73,8.65 9.73,8.65 l 8.12,9.2 c 0,0 -2.17,3.25 1.08,9.74 3.24,6.48 5.95,17.31 18.39,18.93 12.44,1.62 35.16,0.54 35.16,0.54 l 4.87,-11.9 c 0,0 1.08,-9.2 -1.08,-15.15 -2.16,-5.94 -18.4,-36.78 -18.4,-36.78 l 3.79,-10.27 1.63,-16.23 -3.79,-17.31 c 0,0 9.19,-5.4 9.19,-10.28 0,-4.87 -3.79,-19.47 -3.79,-19.47 0,0 -1.07,-1.62 3.26,-8.12 4.32,-6.48 6.48,-28.67 1.62,-53 -4.88,-24.35 -10.82,-54.09 -10.82,-54.09 l -3.25,-15.69 c 0,0 1.63,-23.26 2.16,-37.86 0.55,-14.61 4.87,-73.02 4.87,-73.02 l -3.78,-22.72 c 0,0 1.08,-21.1 -1.09,-34.62 -2.16,-13.52 3.25,-21.09 3.25,-21.09 l 11.36,9.73 10.27,-5.41"
         style="fill:#ffcc00;fill-rule:evenodd"
         id="path3433"
         inkscape:connector-curvature="0" />
    </g>
    <g
       transform="matrix(0.47353141,0,0,0.4501869,224.82241,203.76357)"
       inkscape:label="Layer 1"
       id="layer1-6"
       style="fill:#ffcc00">
      <path
         d="m 490.9,500.68 -2.5,9.11 -4.96,9.11 c 0,0 -1.6,3.21 -2.82,5.63 -0.73,1.47 -1.32,2.65 -1.32,2.65 l 2.49,-15.73 c 0,0 0.82,2.48 0.82,-14.91 0,-17.39 0.83,-53 0.83,-53 l -3.31,-26.5 0,-20.7 13.25,38.1 0.82,21.52 c 0,0 -3.3,44.72 -3.3,44.72 z M 283.43,462.24 c -1.28,6.16 -0.89,7.11 -0.38,9.98 2.49,14.07 -2.56,26.81 -2.56,26.81 l 0,13.24 -4.98,-4.96 -1.64,-9.94 0.81,-24.84 2.23,-35.99 5.75,20.33 c 0,0 2.05,-0.75 0.77,5.37 z m 259.65,-80.81 -4.14,-35.6 c 0,0 -15.73,-27.33 -4.14,-35.61 11.6,-8.28 8.28,-3.31 0.83,-14.08 -7.46,-10.76 -8.29,-27.32 -14.91,-45.55 -6.63,-18.21 -18.4,-20.86 -18.95,-22.24 -0.56,-1.38 -8.56,-11.32 -10.77,-14.09 -2.21,-2.76 -53.3,-32.59 -53.3,-32.59 0,0 -6.63,-1.1 -9.95,-2.21 -3.31,-1.1 -9.39,-5.52 -9.39,-5.52 0,0 -1.1,0.83 -6.35,-1.1 -5.25,-1.94 -8.56,-6.63 -8.56,-6.63 0,0 -0.83,-21.55 0.28,-25.41 1.1,-3.86 2.48,-10.77 5.24,-11.32 2.76,-0.56 3.04,-8.84 4.15,-14.92 1.1,-6.07 -1.39,-8.56 -2.49,-8.56 -1.1,0 -1.39,-1.93 -1.39,-1.93 0,0 -1.1,-6.357 0.84,-9.118 1.93,-2.757 0.82,-17.401 0.27,-23.197 -0.55,-5.8 -4.69,-6.909 -4.69,-6.909 l -4.97,-7.453 -9.11,-8.285 -5.53,-4.419 -5.53,-3.593 c 0,0 -10.76,-1.93 -18.49,-1.658 -7.74,0.281 -19.61,9.116 -27.63,16.574 -8,7.454 -7.73,19.332 -7.73,19.332 l -0.83,13.807 c 0,0 1.38,7.182 1.38,7.182 l -4.48,12.667 0,11.59 c 0,0 5.8,0.83 5.8,0.83 0,0 2.48,9.1 2.48,9.1 l 6.62,16.57 c 0,0 -1.65,27.32 -1.65,27.32 l -8.28,1.66 -6.63,4.97 -13.25,9.94 c 0,0 -11.6,9.11 -31.48,19.87 -19.88,10.77 -29.83,25.67 -37.28,49.69 -7.46,24.01 -25.68,42.23 -25.68,42.23 l 9.11,5.79 11.6,11.6 c 0,0 4.14,44.71 0,54.65 -4.14,9.94 -1.66,32.29 -1.66,63.76 0,31.47 8.28,37.26 8.28,37.26 l 4.98,46.39 0,33.12 4.97,21.53 18.22,13.25 13.26,10.76 c 0,0 8.28,84.46 10.76,136.63 2.49,52.18 19.06,123.39 19.06,123.39 0,0 -0.83,0.83 -7.46,4.14 -6.63,3.31 5.8,11.6 5.8,11.6 0,0 7.45,9.93 7.45,9.93 0,0 -15.73,10.77 -20.7,15.73 -4.97,4.97 -4.15,8.29 -4.15,8.29 l 4.97,4.13 -11.59,13.26 c 0,0 -6.63,15.73 -8.29,23.18 -1.65,7.45 11.6,16.57 28.17,17.4 16.57,0.82 25.67,-6.63 33.96,-10.77 8.28,-4.14 9.11,-19.05 9.11,-19.05 l 2.49,-16.56 13.25,-5.79 9.94,-7.46 2.49,-13.25 0,-8.28 7.45,-4.97 3.31,-8.28 -4.96,-13.25 c 0,0 -4.15,-48.03 -4.15,-48.03 l -1.65,-120.08 4.14,-43.88 4.97,-67.08 4.14,47.2 8.29,20.71 7.45,23.18 c 0,0 6.63,92.75 2.49,127.53 -4.15,34.78 5.8,56.31 5.8,56.31 0,0 2.48,4.97 2.48,4.97 l 1.65,9.93 c 0,0 4.15,9.11 4.15,9.11 l 12.42,10.77 c 0,0 -4.13,8.28 -4.13,8.28 l 9.11,10.77 5.8,4.97 2.48,16.56 12.42,20.7 c 0,0 8.29,4.97 24.86,5.79 16.56,0.83 21.54,-6.62 21.54,-6.62 l 8.28,-16.56 -8.28,-33.95 -8.29,-12.42 -13.25,-8.29 4.97,-9.11 0,-18.21 -6.63,-1.66 4.13,-11.59 2.5,-37.26 c 0,0 -6.63,-25.68 -3.31,-33.13 3.31,-7.45 -1.66,-67.07 0.81,-92.74 2.5,-25.68 -10.76,-72.87 -10.76,-72.87 l 42.25,-27.33 19.05,-33.96 -2.48,-11.59 -5.8,-24.02 9.11,-73.69 c 0,0 3.31,-52.18 3.31,-52.18 z"
         style="fill:#ffcc00"
         id="path3443"
         inkscape:connector-curvature="0" />
    </g>
    <g
       transform="matrix(0.45012075,0,0,0.45012075,59.057742,229.37852)"
       inkscape:label="Layer 1"
       id="layer1-62"
       style="fill:#ffcc00">
      <path
         d="m 363.7,144.15 c 0,0 -3.14,3.13 -6.27,0.62 -3.13,-2.51 -10.04,-18.19 -10.04,-18.19 l 0,-8.78 -0.62,-4.4 -4.39,-4.39 c 0,0 -6.91,-7.53 -1.89,-21.96 5.02,-14.428 13.18,-30.116 19.46,-34.505 6.26,-4.394 17.56,-8.153 17.56,-8.153 l 6.9,-1.885 8.79,-0.63 c 0,0 1.25,-3.14 13.8,2.514 12.55,5.639 17.57,10.669 26.97,20.072 9.42,9.409 11.93,10.669 12.55,17.568 0.64,6.899 0,15.062 0,15.062 0,0 -1.26,5.017 1.26,10.037 2.51,5.02 5.65,3.76 1.25,10.67 -4.39,6.89 -8.78,11.91 -8.78,11.91 l -5.02,5.02 c 0,0 -2.51,-3.14 -2.51,1.89 0,5.01 -2.51,11.92 -2.51,11.92 l 2.51,26.35 c 0,0 1.88,1.88 8.79,3.14 6.9,1.25 16.94,7.52 26.97,7.52 l 11.93,0 c 0,0 3.13,3.76 -5.03,6.28 -8.15,2.51 -9.41,2.51 -4.39,5.64 5.02,3.14 14.43,6.28 14.43,6.28 0,0 13.18,1.88 20.71,8.16 7.53,6.27 23.21,35.13 23.21,38.89 0,3.76 8.78,8.16 6.28,12.55 -2.52,4.39 -3.14,6.9 -3.14,6.9 0,0 0.62,5.03 4.39,10.67 3.77,5.64 10.04,24.47 11.92,30.12 1.88,5.64 1.26,8.78 4.4,17.56 3.13,8.78 3.76,18.83 1.88,21.33 -1.88,2.51 -0.63,8.79 -3.77,16.32 -3.14,7.52 -0.63,11.29 -5.65,15.05 -5.01,3.76 -15.68,7.53 -15.68,7.53 0,0 -4.39,0.63 -4.39,0.63 0,0 0.63,13.17 2.5,21.33 1.89,8.15 0,21.34 6.28,38.9 6.28,17.57 11.29,50.19 11.29,50.19 0,0 -3.76,9.41 -9.41,15.06 -5.65,5.65 -32.62,13.8 -32.62,13.8 0,0 4.39,93.48 1.25,106.66 -3.14,13.17 -5.02,21.34 -8.16,23.22 -3.14,1.88 2.51,34.5 0.63,42.03 -1.88,7.53 -3.77,28.23 -3.77,28.23 l 1.89,13.81 c 0,0 5.65,6.27 5.65,6.27 l 1.25,13.17 c 0,0 -1.25,36.4 -5.65,48.94 -4.38,12.55 -2.51,16.32 -2.51,21.97 0,5.64 -7.52,30.11 -7.52,30.11 l 4.39,35.13 c 0,0 5.64,6.91 5.64,6.91 0,0 17.57,12.54 23.85,16.94 6.27,4.39 24.47,16.94 24.47,16.94 0,0 7.52,6.27 6.9,10.66 -0.63,4.39 -5.02,10.66 -5.02,10.66 0,0 -15.06,11.3 -37.65,4.4 -22.58,-6.9 -57.72,-25.72 -57.72,-25.72 l -20.7,-10.67 c 0,0 -4.39,-5.65 -4.39,-5.65 l -0.63,-5.02 c 0,0 3.13,-3.76 3.13,-3.76 l 3.14,-2.51 0,-5.64 c 0,0 -6.9,-8.16 -8.16,-13.81 -1.24,-5.64 -1.87,-98.5 -0.62,-111.68 1.26,-13.17 1.89,-23.21 3.13,-26.98 1.26,-3.76 2.51,-6.9 2.51,-6.9 l -1.88,-8.15 0,-7.53 5.65,-15.69 c 0,0 -13.17,-50.82 -13.17,-62.11 0,-11.3 -2.51,-50.19 -2.51,-50.19 L 409.5,577.06 407,568.9 c 0,0 -4.4,6.27 -8.16,10.67 -3.76,4.38 -1.26,8.77 -6.9,21.32 -5.65,12.56 -18.2,48.94 -18.2,48.94 l -10.04,39.53 c 0,0 -8.78,89.09 -8.78,89.09 l -15.69,119.83 0,15.06 c 0,3.76 -9.41,17.57 -10.04,21.96 -0.62,4.4 4.4,7.53 -1.87,14.43 -6.28,6.9 -8.16,16.94 -15.06,16.32 -6.9,-0.63 -33.88,-1.26 -38.27,-7.54 -4.39,-6.28 -1.26,-40.78 -1.26,-40.78 l 4.4,-6.27 0,-37.64 24.46,-186.35 c 0,0 -1.88,-24.46 -1.88,-24.46 l -2.51,-42.04 c 0,0 5.02,-84.7 5.02,-84.7 l 2.51,-13.18 c 0,0 -4.39,-6.27 -4.39,-6.27 l -11.92,-3.13 4.39,-28.24 c 0,0 19.45,-94.11 19.45,-94.11 l -8.16,-11.91 -10.03,-66.51 10.03,-84.7 c 0,0 15.69,-14.43 21.97,-17.57 6.27,-3.14 20.07,-12.55 20.07,-12.55 0,0 6.9,-8.16 6.9,-8.16 0,0 11.29,-10.03 15.06,-11.91 3.76,-1.88 4.39,-3.14 4.39,-3.14 0,0 -2.51,-12.55 -3.14,-17.57 -0.62,-5.02 -5.65,-13.17 -5.65,-13.17 z"
         style="fill:#ffcc00;fill-rule:evenodd"
         id="path3449"
         inkscape:connector-curvature="0" />
    </g>
  </g>
</svg>
